<svg id="icons" enable-background="new 0 0 64 64" height="512" viewBox="0 0 64 64" width="512" xmlns="http://www.w3.org/2000/svg"><path d="m1 7.005h38v49h-38z" fill="#48cfad"/><path d="m47 39.995v2h-4c-2.21 0-4-1.79-4-4s1.79-4 4-4 4 1.79 4 4z" fill="#ccd1d9"/><path d="m51 39.995v2h-4v-2c0-1.101.89-2 2-2 1.1 0 2 .9 2 2z" fill="#e6e9ed"/><path d="m55 33.995c2.21 0 4 1.79 4 4s-1.79 4-4 4h-4v-2-2c0-2.21 1.79-4 4-4z" fill="#ccd1d9"/><path d="m47 41.995v5h-11-1v-5h8z" fill="#5d9cec"/><path d="m47 41.995h4v5h-4z" fill="#e6e9ed"/><path d="m63 41.995v5h-1-11v-5h4z" fill="#5d9cec"/><path d="m47 46.995h4v16h-4z" fill="#ccd1d9"/><path d="m51 46.995h11v16h-11z" fill="#4a89dc"/><path d="m47 46.995v16h-10-1v-4-2.99-9.01z" fill="#4a89dc"/><path d="m3 58.995h33v4h-33c-1.101 0-2-.9-2-2v-4c0 1.1.899 2 2 2z" fill="#545c66"/><path d="m1 56.005h35v2.99h-33c-1.101 0-2-.9-2-2z" fill="#656d78"/><path d="m1 4.005h8v3h-8z" fill="#ccd1d9"/><path d="m9 4.005h30v3h-30z" fill="#e6e9ed"/><path d="m37 1.005c1.1 0 2 .9 2 2v1h-30-8v-1c0-1.1.899-2 2-2z" fill="#656d78"/><path d="m26.99 20.005c3.869 0 7 3.13 7 7 0 3.86-3.131 6.99-7 6.99-2.79 0-5.19-1.641-6.32-4h-1.36c-1.13 2.359-3.53 4-6.319 4-3.87 0-7-3.13-7-6.99 0-3.87 3.13-7 7-7h7z" fill="#e6e9ed"/><path d="m62 63.998h-26c-.553 0-1-.447-1-1v-16c0-.553.447-1 1-1h26c.553 0 1 .447 1 1v16c0 .553-.447 1-1 1zm-25-2h24v-14h-24z"/><path d="m63 47.998h-28c-.553 0-1-.447-1-1v-5c0-.553.447-1 1-1h28c.553 0 1 .447 1 1v5c0 .553-.447 1-1 1zm-27-2h26v-3h-26z"/><path d="m47 42.998c-.553 0-1-.447-1-1v-4c0-1.654-1.346-3-3-3s-3 1.346-3 3c0 .553-.447 1-1 1s-1-.447-1-1c0-2.757 2.243-5 5-5s5 2.243 5 5v4c0 .553-.447 1-1 1z"/><path d="m55 42.998h-4c-.553 0-1-.447-1-1v-4c0-2.757 2.243-5 5-5s5 2.243 5 5-2.243 5-5 5zm-3-2h3c1.654 0 3-1.346 3-3s-1.346-3-3-3-3 1.346-3 3z"/><path d="m51 40.998c-.553 0-1-.447-1-1 0-.552-.448-1-1-1s-1 .448-1 1c0 .553-.447 1-1 1s-1-.447-1-1c0-1.654 1.346-3 3-3s3 1.346 3 3c0 .553-.447 1-1 1z"/><path d="m47 63.998c-.553 0-1-.447-1-1v-21c0-.553.447-1 1-1s1 .447 1 1v21c0 .553-.447 1-1 1z"/><path d="m51 63.998c-.553 0-1-.447-1-1v-21c0-.553.447-1 1-1s1 .447 1 1v21c0 .553-.447 1-1 1z"/><path d="m36 59.998h-33c-1.654 0-3-1.346-3-3v-53.996c0-1.654 1.346-3 3-3h34c1.654 0 3 1.346 3 3v34.996c0 .553-.447 1-1 1s-1-.447-1-1v-34.996c0-.552-.448-1-1-1h-34c-.552 0-1 .448-1 1v53.996c0 .552.448 1 1 1h33c.553 0 1 .447 1 1s-.447 1-1 1z"/><path d="m37 63.998h-34c-1.654 0-3-1.346-3-3v-52.996c0-.553.447-1 1-1s1 .447 1 1v52.996c0 .552.448 1 1 1h34c.553 0 1 .447 1 1s-.447 1-1 1z"/><path d="m39 38.998c-.553 0-1-.447-1-1v-29.996c0-.553.447-1 1-1s1 .447 1 1v29.996c0 .553-.447 1-1 1z"/><path d="m39 5.002h-38c-.553 0-1-.447-1-1s.447-1 1-1h38c.553 0 1 .447 1 1s-.447 1-1 1z"/><path d="m35.998 57.004h-34.998c-.553 0-1-.447-1-1s.447-1 1-1h34.998c.553 0 1 .447 1 1s-.447 1-1 1z"/><path d="m39 8.002h-38c-.553 0-1-.447-1-1s.447-1 1-1h38c.553 0 1 .447 1 1s-.447 1-1 1z"/><path d="m8.998 8.002c-.553 0-1-.447-1-1v-3c0-.553.447-1 1-1s1 .447 1 1v3c0 .553-.447 1-1 1z"/><path d="m16.026 52.008c-.553 0-1.005-.447-1.005-1s.442-1 .994-1h.011c.552 0 1 .447 1 1s-.448 1-1 1z"/><path d="m20.026 52.008c-.553 0-1.005-.447-1.005-1s.442-1 .994-1h.011c.552 0 1 .447 1 1s-.448 1-1 1z"/><path d="m24.026 52.008c-.553 0-1.005-.447-1.005-1s.442-1 .994-1h.011c.552 0 1 .447 1 1s-.448 1-1 1z"/><path d="m32 40h-23.998c-.553 0-1-.447-1-1s.447-1 1-1h23.998c.553 0 1 .447 1 1s-.447 1-1 1z"/><path d="m32 43h-23.998c-.553 0-1-.447-1-1s.447-1 1-1h23.998c.553 0 1 .447 1 1s-.447 1-1 1z"/><path d="m26 46h-12c-.553 0-1-.447-1-1s.447-1 1-1h12c.553 0 1 .447 1 1s-.447 1-1 1z"/><path d="m26.99 34.998c-2.849 0-5.499-1.55-6.921-3.998h-.16c-1.42 2.448-4.069 3.998-6.919 3.998-4.411 0-8-3.587-8-7.996 0-4.41 3.589-7.998 8-7.998h14c4.411 0 8 3.588 8 7.998 0 4.409-3.589 7.996-8 7.996zm-7.683-5.998h1.365c.386 0 .736.222.902.569.993 2.083 3.119 3.429 5.416 3.429 3.309 0 6-2.689 6-5.996 0-3.308-2.691-5.998-6-5.998h-14c-3.309 0-6 2.69-6 5.998 0 3.307 2.691 5.996 6 5.996 2.298 0 4.422-1.346 5.413-3.428.166-.348.518-.57.904-.57z"/><path d="m12.99 30.002c-.553 0-1-.447-1-1v-4c0-.553.447-1 1-1s1 .447 1 1v4c0 .553-.447 1-1 1z"/><path d="m14.99 28.002h-4c-.553 0-1-.447-1-1s.447-1 1-1h4c.553 0 1 .447 1 1s-.447 1-1 1z"/><path d="m25.034 28.002c-.553 0-1.005-.447-1.005-1s.442-1 .994-1h.011c.552 0 1 .447 1 1s-.448 1-1 1z"/><path d="m27.034 26.002c-.553 0-1.005-.447-1.005-1s.442-1 .994-1h.011c.552 0 1 .447 1 1s-.448 1-1 1z"/><path d="m27.036 30.002c-.553 0-1.005-.447-1.005-1s.442-1 .994-1h.011c.552 0 1 .447 1 1s-.448 1-1 1z"/><path d="m29.036 28.002c-.553 0-1.005-.447-1.005-1s.442-1 .994-1h.011c.552 0 1 .447 1 1s-.448 1-1 1z"/><path d="m19.994 20c-.553 0-1-.447-1-1 0-1.654 1.346-3 3-3 .553 0 1 .447 1 1s-.447 1-1 1c-.552 0-1 .448-1 1 0 .553-.447 1-1 1z"/><path d="m27.996 17.998c-.553 0-1-.447-1-1s.447-1 1-1c.551 0 .998-.447.998-.998s-.447-.998-.998-.998c-.553 0-1-.447-1-1s.447-1 1-1c1.653 0 2.998 1.345 2.998 2.998s-1.345 2.998-2.998 2.998z"/><path d="m27.996 14h-16.002c-.553 0-1-.447-1-1s.447-1 1-1h16.002c.553 0 1 .447 1 1s-.447 1-1 1z"/><path d="m27.996 18h-6.002c-.553 0-1-.447-1-1s.447-1 1-1h6.002c.553 0 1 .447 1 1s-.447 1-1 1z"/><path d="m19.994 21.002c-.553 0-1-.447-1-1v-1.002c0-.553.447-1 1-1s1 .447 1 1v1.002c0 .553-.447 1-1 1z"/><path d="m43 42.998c-2.757 0-5-2.243-5-5 0-.553.447-1 1-1s1 .447 1 1c0 1.654 1.346 3 3 3 .553 0 1 .447 1 1s-.447 1-1 1z"/></svg>